<mxfile host="app.diagrams.net" modified="2022-04-18T09:20:34.098Z" agent="5.0 (Windows)" etag="ke1ZhPHWz2_XPLDlN-KI" version="17.4.5" type="github">
  <diagram id="Rmy6Oijv7eUS5dx1MSk9" name="Page-1">
    <mxGraphModel dx="1422" dy="777" grid="1" gridSize="10" guides="1" tooltips="1" connect="1" arrows="1" fold="1" page="1" pageScale="1" pageWidth="827" pageHeight="1169" math="0" shadow="0">
      <root>
        <mxCell id="0" />
        <mxCell id="1" parent="0" />
        <mxCell id="ZsX7-QmTqDi4WRC6YvOe-1" value="" style="whiteSpace=wrap;html=1;" vertex="1" parent="1">
          <mxGeometry x="80" y="130" width="730" height="1000" as="geometry" />
        </mxCell>
        <mxCell id="ZsX7-QmTqDi4WRC6YvOe-2" value="se logger" style="ellipse;whiteSpace=wrap;html=1;" vertex="1" parent="1">
          <mxGeometry x="320" y="170" width="140" height="70" as="geometry" />
        </mxCell>
        <mxCell id="ZsX7-QmTqDi4WRC6YvOe-3" value="gérer les stocks" style="ellipse;whiteSpace=wrap;html=1;" vertex="1" parent="1">
          <mxGeometry x="530" y="170" width="140" height="70" as="geometry" />
        </mxCell>
        <mxCell id="ZsX7-QmTqDi4WRC6YvOe-4" value="convertir les unités de mesure" style="ellipse;whiteSpace=wrap;html=1;" vertex="1" parent="1">
          <mxGeometry x="230" y="340" width="140" height="70" as="geometry" />
        </mxCell>
        <mxCell id="ZsX7-QmTqDi4WRC6YvOe-5" value="récupérer du matériel de brassage&lt;br&gt;" style="ellipse;whiteSpace=wrap;html=1;" vertex="1" parent="1">
          <mxGeometry x="230" y="440" width="140" height="70" as="geometry" />
        </mxCell>
        <mxCell id="ZsX7-QmTqDi4WRC6YvOe-6" value="utiliser une app téléphone" style="ellipse;whiteSpace=wrap;html=1;" vertex="1" parent="1">
          <mxGeometry x="160" y="940" width="140" height="70" as="geometry" />
        </mxCell>
        <mxCell id="ZsX7-QmTqDi4WRC6YvOe-7" value="créer une recette" style="ellipse;whiteSpace=wrap;html=1;" vertex="1" parent="1">
          <mxGeometry x="410" y="270" width="140" height="70" as="geometry" />
        </mxCell>
        <mxCell id="ZsX7-QmTqDi4WRC6YvOe-8" value="s&#39;inscrire à une newsletter" style="ellipse;whiteSpace=wrap;html=1;" vertex="1" parent="1">
          <mxGeometry x="410" y="360" width="140" height="70" as="geometry" />
        </mxCell>
        <mxCell id="ZsX7-QmTqDi4WRC6YvOe-9" value="" style="group" vertex="1" connectable="0" parent="1">
          <mxGeometry x="10" y="910" width="60" height="105" as="geometry" />
        </mxCell>
        <mxCell id="ZsX7-QmTqDi4WRC6YvOe-10" value="Actor" style="shape=umlActor;verticalLabelPosition=bottom;verticalAlign=top;html=1;" vertex="1" parent="ZsX7-QmTqDi4WRC6YvOe-9">
          <mxGeometry x="10" y="10" width="30" height="60" as="geometry" />
        </mxCell>
        <mxCell id="ZsX7-QmTqDi4WRC6YvOe-11" value="Visiteur" style="text;html=1;resizable=0;autosize=1;align=center;verticalAlign=middle;points=[];fillColor=none;strokeColor=none;rounded=0;" vertex="1" parent="ZsX7-QmTqDi4WRC6YvOe-9">
          <mxGeometry y="85" width="60" height="20" as="geometry" />
        </mxCell>
        <mxCell id="ZsX7-QmTqDi4WRC6YvOe-12" value="échanger sur un forum&lt;br&gt;" style="ellipse;whiteSpace=wrap;html=1;" vertex="1" parent="1">
          <mxGeometry x="170" y="830" width="140" height="70" as="geometry" />
        </mxCell>
        <mxCell id="ZsX7-QmTqDi4WRC6YvOe-13" value="utiliser un calendrier de fermentation" style="ellipse;whiteSpace=wrap;html=1;" vertex="1" parent="1">
          <mxGeometry x="424" y="540" width="140" height="70" as="geometry" />
        </mxCell>
        <mxCell id="ZsX7-QmTqDi4WRC6YvOe-14" value="ajuster les densités" style="ellipse;whiteSpace=wrap;html=1;" vertex="1" parent="1">
          <mxGeometry x="230" y="560" width="140" height="70" as="geometry" />
        </mxCell>
        <mxCell id="ZsX7-QmTqDi4WRC6YvOe-15" value="partager mes recettes" style="ellipse;whiteSpace=wrap;html=1;" vertex="1" parent="1">
          <mxGeometry x="564" y="280" width="140" height="70" as="geometry" />
        </mxCell>
        <mxCell id="ZsX7-QmTqDi4WRC6YvOe-16" value="avoir un tableau de bord&lt;br&gt;" style="ellipse;whiteSpace=wrap;html=1;" vertex="1" parent="1">
          <mxGeometry x="230" y="260" width="140" height="70" as="geometry" />
        </mxCell>
        <mxCell id="ZsX7-QmTqDi4WRC6YvOe-17" value="acheter des matières premières&lt;br&gt;" style="ellipse;whiteSpace=wrap;html=1;" vertex="1" parent="1">
          <mxGeometry x="410" y="440" width="140" height="70" as="geometry" />
        </mxCell>
        <mxCell id="ZsX7-QmTqDi4WRC6YvOe-18" value="avoir un journal de brassage" style="ellipse;whiteSpace=wrap;html=1;" vertex="1" parent="1">
          <mxGeometry x="580" y="530" width="140" height="70" as="geometry" />
        </mxCell>
        <mxCell id="ZsX7-QmTqDi4WRC6YvOe-19" value="calculer les volumes à l&#39;avance" style="ellipse;whiteSpace=wrap;html=1;" vertex="1" parent="1">
          <mxGeometry x="564" y="380" width="140" height="70" as="geometry" />
        </mxCell>
        <mxCell id="ZsX7-QmTqDi4WRC6YvOe-20" value="créer un profil" style="ellipse;whiteSpace=wrap;html=1;" vertex="1" parent="1">
          <mxGeometry x="110" y="170" width="140" height="70" as="geometry" />
        </mxCell>
        <mxCell id="ZsX7-QmTqDi4WRC6YvOe-21" value="gérer mes coûts" style="ellipse;whiteSpace=wrap;html=1;" vertex="1" parent="1">
          <mxGeometry x="424" y="630" width="140" height="70" as="geometry" />
        </mxCell>
        <mxCell id="ZsX7-QmTqDi4WRC6YvOe-22" value="gérer les équipements de brassage&lt;br&gt;" style="ellipse;whiteSpace=wrap;html=1;" vertex="1" parent="1">
          <mxGeometry x="420" y="720" width="140" height="70" as="geometry" />
        </mxCell>
        <mxCell id="ZsX7-QmTqDi4WRC6YvOe-23" value="" style="group" vertex="1" connectable="0" parent="1">
          <mxGeometry x="10" y="210" width="60" height="120" as="geometry" />
        </mxCell>
        <mxCell id="ZsX7-QmTqDi4WRC6YvOe-24" value="Actor" style="shape=umlActor;verticalLabelPosition=bottom;verticalAlign=top;html=1;" vertex="1" parent="ZsX7-QmTqDi4WRC6YvOe-23">
          <mxGeometry x="15" width="30" height="60" as="geometry" />
        </mxCell>
        <mxCell id="ZsX7-QmTqDi4WRC6YvOe-25" value="User ++" style="text;html=1;resizable=0;autosize=1;align=center;verticalAlign=middle;points=[];fillColor=none;strokeColor=none;rounded=0;" vertex="1" parent="ZsX7-QmTqDi4WRC6YvOe-23">
          <mxGeometry y="100" width="60" height="20" as="geometry" />
        </mxCell>
        <mxCell id="ZsX7-QmTqDi4WRC6YvOe-26" value="Appli Bière&lt;br&gt;" style="text;html=1;resizable=0;autosize=1;align=center;verticalAlign=middle;points=[];fillColor=none;strokeColor=none;rounded=0;" vertex="1" parent="1">
          <mxGeometry x="455" y="150" width="70" height="20" as="geometry" />
        </mxCell>
        <mxCell id="ZsX7-QmTqDi4WRC6YvOe-27" value="suivre ma fermentation&lt;br&gt;" style="ellipse;whiteSpace=wrap;html=1;" vertex="1" parent="1">
          <mxGeometry x="600" y="640" width="140" height="70" as="geometry" />
        </mxCell>
        <mxCell id="ZsX7-QmTqDi4WRC6YvOe-28" value="connecter des objets" style="ellipse;whiteSpace=wrap;html=1;" vertex="1" parent="1">
          <mxGeometry x="590" y="740" width="140" height="70" as="geometry" />
        </mxCell>
        <mxCell id="ZsX7-QmTqDi4WRC6YvOe-29" value="" style="endArrow=none;html=1;rounded=0;" edge="1" parent="1" source="ZsX7-QmTqDi4WRC6YvOe-20" target="ZsX7-QmTqDi4WRC6YvOe-2">
          <mxGeometry width="50" height="50" relative="1" as="geometry">
            <mxPoint x="390" y="380" as="sourcePoint" />
            <mxPoint x="440" y="330" as="targetPoint" />
          </mxGeometry>
        </mxCell>
        <mxCell id="ZsX7-QmTqDi4WRC6YvOe-30" value="" style="endArrow=none;html=1;rounded=0;entryX=1;entryY=0.5;entryDx=0;entryDy=0;" edge="1" parent="1" source="ZsX7-QmTqDi4WRC6YvOe-3" target="ZsX7-QmTqDi4WRC6YvOe-2">
          <mxGeometry width="50" height="50" relative="1" as="geometry">
            <mxPoint x="390" y="380" as="sourcePoint" />
            <mxPoint x="440" y="330" as="targetPoint" />
          </mxGeometry>
        </mxCell>
        <mxCell id="ZsX7-QmTqDi4WRC6YvOe-31" value="" style="endArrow=none;html=1;rounded=0;exitX=0;exitY=0.5;exitDx=0;exitDy=0;entryX=1;entryY=0.5;entryDx=0;entryDy=0;" edge="1" parent="1" source="ZsX7-QmTqDi4WRC6YvOe-15" target="ZsX7-QmTqDi4WRC6YvOe-7">
          <mxGeometry width="50" height="50" relative="1" as="geometry">
            <mxPoint x="390" y="380" as="sourcePoint" />
            <mxPoint x="440" y="330" as="targetPoint" />
          </mxGeometry>
        </mxCell>
        <mxCell id="ZsX7-QmTqDi4WRC6YvOe-32" value="&lt;div&gt;Contacter&lt;/div&gt;&lt;div&gt;&lt;br&gt;&lt;/div&gt;" style="ellipse;whiteSpace=wrap;html=1;" vertex="1" parent="1">
          <mxGeometry x="574" y="450" width="120" height="80" as="geometry" />
        </mxCell>
      </root>
    </mxGraphModel>
  </diagram>
</mxfile>
